{"title":"Metropolitan (1990) Criterion BRRip x264-pong","uid":15587917,"size":819117729,"categoryP":"video","categoryS":"movies","magnet":"?xt=urn:btih:bf7fff0fb5d9958d5c63523e935f01aadda734ac&amp;dn=Metropolitan+%281990%29+Criterion+BRRip+x264-pong&amp;tr=udp%3A%2F%2Ftracker.leechers-paradise.org%3A6969&amp;tr=udp%3A%2F%2Fzer0day.ch%3A1337&amp;tr=udp%3A%2F%2Fopen.demonii.com%3A1337&amp;tr=udp%3A%2F%2Ftracker.coppersurfer.tk%3A6969&amp;tr=udp%3A%2F%2Fexodus.desync.com%3A6969","seeders":1,"leechers":0,"uploader":"Pongydog","files":1,"time":1471484978,"description":"http://www.imdb.com/title/tt0100142\r\n\r\n\r\nA group of young upper-class Manhattanites are blithely passing through the gala debutante season, when an unusual outsider joins them and stirs them up. \r\n\r\nDirector: Whit Stillman  \r\n\r\nWriter: Whit Stillman  \r\n\r\nStars: Carolyn Farina,  Edward Clements,  Chris Eigeman  | See full cast &amp; crew » \r\n\r\n\r\n\r\n------------\r\nGeneral\r\nComplete name                            : C:Usersuser1VideosMetropolitan (1990) Criterion BRRip x264-pong.mp4\r\nFormat                                   : MPEG-4\r\nFormat profile                           : Base Media\r\nCodec ID                                 : isom (isom/iso2/avc1/mp41)\r\nFile size                                : 781 MiB\r\nDuration                                 : 1h 38mn\r\nOverall bit rate mode                    : Variable\r\nOverall bit rate                         : 1 108 Kbps\r\nMovie name                               : Metropolitan 1990 - Criterion Blu-ray\r\nEncoded date                             : UTC 2016-06-20 01:54:46\r\nTagged date                              : UTC 2016-06-20 01:54:46\r\nWriting application                      : Lavf57.36.100\r\n\r\nVideo\r\nID                                       : 1\r\nFormat                                   : AVC\r\nFormat/Info                              : Advanced Video Codec\r\nFormat profile                           :   \r\nFormat settings, CABAC                   : Yes\r\nFormat settings, ReFrames                : 2 frames\r\nCodec ID                                 : avc1\r\nCodec ID/Info                            : Advanced Video Coding\r\nDuration                                 : 1h 38mn\r\nBit rate                                 : 1 000 Kbps\r\nWidth                                    : 1 280 pixels\r\nHeight                                   : 768 pixels\r\nDisplay aspect ratio                     : 5:3\r\nFrame rate mode                          : Constant\r\nFrame rate                               : 23.976 (24000/1001) fps\r\nColor space                              : YUV\r\nChroma subsampling                       : 4:2:0\r\nBit depth                                : 8 bits\r\nScan type                                : Progressive\r\nBits/(Pixel*Frame)                       : 0.042\r\nStream size                              : 705 MiB (90%)\r\nWriting library                          : x264 core 148 r2643\r\nEncoding settings                        : cabac=1 / ref=2 / deblock=1:0:0 / analyse=0x3:0x133 / me=hex / subme=7 / psy=1 / psy_rd=1.00:0.00 / mixed_ref=0 / me_range=16 / chroma_me=1 / trellis=1 / 8x8dct=1 / cqm=0 / deadzone=21,11 / fast_pskip=1 / chroma_qp_offset=-2 / threads=3 / lookahead_threads=1 / sliced_threads=0 / nr=0 / decimate=1 / interlaced=0 / bluray_compat=0 / constrained_intra=0 / bframes=3 / b_pyramid=0 / b_adapt=1 / b_bias=0 / direct=0 / weightb=1 / open_gop=0 / weightp=2 / keyint=239 / keyint_min=23 / scenecut=40 / intra_refresh=0 / rc_lookahead=40 / rc=2pass / mbtree=1 / bitrate=1000 / ratetol=1.0 / qcomp=0.60 / qpmin=10 / qpmax=69 / qpstep=4 / cplxblur=20.0 / qblur=0.5 / vbv_maxrate=2400 / vbv_bufsize=24000 / nal_hrd=none / filler=0 / ip_ratio=1.40 / aq=3:1.00\r\nLanguage                                 : English\r\nEncoded date                             : UTC 2016-06-20 01:54:46\r\nTagged date                              : UTC 2016-06-20 01:54:46\r\nMenus                                    : 3\r\n\r\nAudio\r\nID                                       : 2\r\nFormat                                   : AAC\r\nFormat/Info                              : Advanced Audio Codec\r\nFormat profile                           : LC\r\nCodec ID                                 : 40\r\nDuration                                 : 1h 38mn\r\nBit rate mode                            : Variable\r\nBit rate                                 : 102 Kbps\r\nMaximum bit rate                         : 128 Kbps\r\nChannel(s)                               : 2 channels\r\nChannel(s)_Original                      : 1 channel\r\nChannel positions                        : Front: C\r\nSampling rate                            : 48.0 KHz\r\nFrame rate                               : 46.875 fps (1024 spf)\r\nCompression mode                         : Lossy\r\nStream size                              : 72.0 MiB (9%)\r\nLanguage                                 : English\r\nDefault                                  : Yes\r\nAlternate group                          : 1\r\nEncoded date                             : UTC 2016-06-20 01:54:46\r\nTagged date                              : UTC 2016-06-20 01:54:46\r\nMenus                                    : 3","torrent":{"xt":"urn:btih:bf7fff0fb5d9958d5c63523e935f01aadda734ac","amp;dn":"Metropolitan+%281990%29+Criterion+BRRip+x264-pong","amp;tr":["udp%3A%2F%2Ftracker.leechers-paradise.org%3A6969","udp%3A%2F%2Fzer0day.ch%3A1337","udp%3A%2F%2Fopen.demonii.com%3A1337","udp%3A%2F%2Ftracker.coppersurfer.tk%3A6969","udp%3A%2F%2Fexodus.desync.com%3A6969"],"infoHash":"bf7fff0fb5d9958d5c63523e935f01aadda734ac","infoHashBuffer":{"type":"Buffer","data":[191,127,255,15,181,217,149,141,92,99,82,62,147,95,1,170,221,167,52,172]},"announce":[],"urlList":[]}}